<svg width="124" height="237" viewBox="0 0 124 237" fill="none" xmlns="http://www.w3.org/2000/svg">
<g filter="url(#filter0_d_0_56)">
<path d="M20 27.0744C20 24.8652 21.7909 23.0743 24 23.0743H80.1713C81.113 23.0743 82 22.6322 82.5668 21.8803L85.4071 18.1129C86.3173 16.9056 87.9837 16.5643 89.2953 17.3166L98.8711 22.8092C99.174 22.9829 99.5171 23.0743 99.8662 23.0743H100C102.209 23.0743 104 24.8652 104 27.0743V209C104 211.209 102.209 213 100 213H24C21.7909 213 20 211.209 20 209V27.0744Z" fill="white"/>
<path d="M20.5 27.0744C20.5 25.1414 22.067 23.5743 24 23.5743H80.1713C81.2699 23.5743 82.3048 23.0585 82.9661 22.1813L85.8064 18.4139C86.5648 17.4078 87.9535 17.1234 89.0465 17.7503L98.6223 23.2429C99.0009 23.4601 99.4298 23.5743 99.8662 23.5743H100C101.933 23.5743 103.5 25.1414 103.5 27.0743V209C103.5 210.933 101.933 212.5 100 212.5H24C22.067 212.5 20.5 210.933 20.5 209V27.0744Z" stroke="white"/>
</g>
<defs>
<filter id="filter0_d_0_56" x="0" y="0.918625" width="124" height="236.081" filterUnits="userSpaceOnUse" color-interpolation-filters="sRGB">
<feFlood flood-opacity="0" result="BackgroundImageFix"/>
<feColorMatrix in="SourceAlpha" type="matrix" values="0 0 0 0 0 0 0 0 0 0 0 0 0 0 0 0 0 0 127 0" result="hardAlpha"/>
<feOffset dy="4"/>
<feGaussianBlur stdDeviation="10"/>
<feComposite in2="hardAlpha" operator="out"/>
<feColorMatrix type="matrix" values="0 0 0 0 0.105882 0 0 0 0 0.121569 0 0 0 0 0.145098 0 0 0 0.25 0"/>
<feBlend mode="normal" in2="BackgroundImageFix" result="effect1_dropShadow_0_56"/>
<feBlend mode="normal" in="SourceGraphic" in2="effect1_dropShadow_0_56" result="shape"/>
</filter>
</defs>
</svg>
